# xmcd
#
# Track frame offsets:
#	150
#	1242
#	15830
#	35878
#	49222
#	72936
#	96578
#	117473
#	137699
#	152337
#	162311
#
# Disc length: 2484 seconds
#
# Revision: 1
# Processed by: cddbd v1.5.2PL0 Copyright (c) Steve Scherf et al.
# Submitted via: CDmax 2.0
#
DISCID=8b09b20b
DTITLE=Mark Stewart - Edit
DYEAR=2008
DGENRE=Blues
TTITLE0=Intro
TTITLE1=Rise Again
TTITLE2=Loner
TTITLE3=The Puppet Master
TTITLE4=Strange Cargo
TTITLE5=Secret Suburbia
TTITLE6=Almost Human
TTITLE7=Freak Circus
TTITLE8=Mr You're A Better Man Than I
TTITLE9=Radio Freedom
TTITLE10=Secret Outro
EXTD=
EXTT0=
EXTT1=
EXTT2=
EXTT3=
EXTT4=
EXTT5=
EXTT6=
EXTT7=
EXTT8=
EXTT9=
EXTT10=
PLAYORDER=
